<?xml version="1.0" encoding="utf-8"?>
<!-- Generator: Adobe Illustrator 18.0.0, SVG Export Plug-In . SVG Version: 6.00 Build 0)  -->
<!DOCTYPE svg PUBLIC "-//W3C//DTD SVG 1.1//EN" "http://www.w3.org/Graphics/SVG/1.1/DTD/svg11.dtd">
<svg version="1.1" id="图层_1" xmlns="http://www.w3.org/2000/svg" xmlns:xlink="http://www.w3.org/1999/xlink" x="0px" y="0px"
	 viewBox="0 0 180 150" enable-background="new 0 0 180 150" xml:space="preserve">
<g>
	<line fill="none" stroke="#B3B3B3" stroke-miterlimit="10" x1="180" y1="133.5" x2="0" y2="133.5"/>
	<line fill="none" stroke="#B3B3B3" stroke-miterlimit="10" x1="180" y1="105.5" x2="0" y2="105.5"/>
	<line fill="none" stroke="#B3B3B3" stroke-miterlimit="10" x1="180" y1="75.5" x2="0" y2="75.5"/>
	<line fill="none" stroke="#B3B3B3" stroke-miterlimit="10" x1="180" y1="45.5" x2="0" y2="45.5"/>
	<line fill="none" stroke="#B3B3B3" stroke-miterlimit="10" x1="180" y1="17.5" x2="0" y2="17.5"/>
	<line fill="none" stroke="#B3B3B3" stroke-miterlimit="10" x1="15.5" y1="0" x2="15.5" y2="150"/>
	<line fill="none" stroke="#B3B3B3" stroke-miterlimit="10" x1="45.5" y1="0" x2="45.5" y2="150"/>
	<line fill="none" stroke="#B3B3B3" stroke-miterlimit="10" x1="75.5" y1="0" x2="75.5" y2="150"/>
	<line fill="none" stroke="#B3B3B3" stroke-miterlimit="10" x1="104.5" y1="0" x2="104.5" y2="150"/>
	<line fill="none" stroke="#B3B3B3" stroke-miterlimit="10" x1="135.5" y1="0" x2="135.5" y2="150"/>
	<line fill="none" stroke="#B3B3B3" stroke-miterlimit="10" x1="164.5" y1="0" x2="164.5" y2="150"/>
</g>
<g>
	<circle fill="#00018D" cx="45.3" cy="17.8" r="8.2"/>
</g>
<text transform="matrix(1 0 0 1 42.2889 21.4548)" fill="#FFFFFF" font-family="'PTSans-Caption'" font-size="12">a</text>
<g>
	<g>
		<line fill="none" stroke="#027C00" stroke-width="2" stroke-miterlimit="10" x1="75" y1="18" x2="96" y2="18"/>
		<g>
			<path fill="#027C00" d="M69,18c2.8,1.1,6.4,2.9,8.5,4.8L75.8,18l1.7-4.8C75.3,15.1,71.8,16.9,69,18z"/>
		</g>
	</g>
</g>
<line fill="none" stroke="#027C00" stroke-width="2" stroke-miterlimit="10" x1="53" y1="18" x2="75" y2="18"/>
<line fill="none" stroke="#027C00" stroke-width="2" stroke-miterlimit="10" x1="45" y1="45" x2="45" y2="68"/>
<g>
	<g>
		<line fill="none" stroke="#027C00" stroke-width="2" stroke-miterlimit="10" x1="45" y1="26" x2="45" y2="45"/>
		<g>
			<path fill="#027C00" d="M45,51c-1.1-2.8-2.9-6.4-4.8-8.5l4.8,1.7l4.8-1.7C47.9,44.7,46.1,48.2,45,51z"/>
		</g>
	</g>
</g>
<g>
	<g>
		<line fill="none" stroke="#027C00" stroke-width="2" stroke-miterlimit="10" x1="30.1" y1="90.6" x2="15.3" y2="105"/>
		<g>
			<path fill="#027C00" d="M34.4,86.4c-2.8,1.2-6.5,2.4-9.4,2.6l4.6,2.2l2.1,4.6C31.9,92.8,33.1,89.1,34.4,86.4z"/>
		</g>
	</g>
</g>
<line fill="none" stroke="#027C00" stroke-width="2" stroke-miterlimit="10" x1="45.3" y1="75.8" x2="30.1" y2="90.6"/>
<line fill="none" stroke="#027C00" stroke-width="2" stroke-miterlimit="10" x1="60.5" y1="105.2" x2="75.3" y2="133.8"/>
<g>
	<g>
		<line fill="none" stroke="#027C00" stroke-width="2" stroke-miterlimit="10" x1="45.3" y1="75.8" x2="60.5" y2="105.2"/>
		<g>
			<path fill="#027C00" d="M63.3,110.5c-2.2-2-5.5-4.3-8.2-5.4l5-0.7l3.4-3.7C62.9,103.6,62.9,107.5,63.3,110.5z"/>
		</g>
	</g>
</g>
<g>
	<g>
		<line fill="none" stroke="#027C00" stroke-width="2" stroke-miterlimit="10" x1="119.8" y1="60.6" x2="104.3" y2="75.5"/>
		<g>
			<path fill="#027C00" d="M124.1,56.5c-2.8,1.2-6.6,2.3-9.5,2.5l4.5,2.2l2,4.6C121.5,62.9,122.8,59.2,124.1,56.5z"/>
		</g>
	</g>
</g>
<line fill="none" stroke="#027C00" stroke-width="2" stroke-miterlimit="10" x1="135.3" y1="45.8" x2="119.8" y2="60.6"/>
<line fill="none" stroke="#027C00" stroke-width="2" stroke-miterlimit="10" x1="149.9" y1="60.4" x2="164.5" y2="75"/>
<g>
	<g>
		<line fill="none" stroke="#027C00" stroke-width="2" stroke-miterlimit="10" x1="135.3" y1="45.8" x2="149.9" y2="60.4"/>
		<g>
			<path fill="#027C00" d="M154.2,64.7c-2.8-1.3-6.5-2.5-9.4-2.7l4.6-2.1l2.1-4.6C151.7,58.2,152.9,61.9,154.2,64.7z"/>
		</g>
	</g>
</g>
<g>
	<g>
		<line fill="none" stroke="#027C00" stroke-width="2" stroke-miterlimit="10" x1="119.8" y1="31.7" x2="135.3" y2="45.8"/>
		<g>
			<path fill="#027C00" d="M115.4,27.7c1.4,2.7,2.8,6.4,3.1,9.3l1.9-4.7l4.5-2.4C122,29.8,118.2,28.8,115.4,27.7z"/>
		</g>
	</g>
</g>
<line fill="none" stroke="#027C00" stroke-width="2" stroke-miterlimit="10" x1="104.5" y1="17.8" x2="119.8" y2="31.7"/>
<g>
	<circle fill="#00018D" cx="104.3" cy="17.8" r="8.2"/>
</g>
<text transform="matrix(1 0 0 1 100.9004 21.4141)" fill="#FFFFFF" font-family="'PTSans-Caption'" font-size="12">d</text>
<g>
	<g>
		<path fill="none" stroke="#FE3EFF" stroke-width="2" stroke-miterlimit="10" d="M24.8,83.7c5.4-4.9,12.6-7.9,20.5-7.9"/>
		<g>
			<path fill="#FE3EFF" d="M20.3,87.7c2.8-1.1,6.6-2.2,9.5-2.3l-4.5-2.4l-1.9-4.7C23.1,81.4,21.7,85.1,20.3,87.7z"/>
		</g>
	</g>
</g>
<path fill="none" stroke="#FE3EFF" stroke-width="2" stroke-miterlimit="10" d="M15.3,105c0-8.4,3.6-16,9.5-21.3"/>
<path fill="none" stroke="#FE3EFF" stroke-width="2" stroke-miterlimit="10" d="M156,54.3c-5.3-5.3-12.6-8.6-20.7-8.6"/>
<g>
	<g>
		<path fill="none" stroke="#FE3EFF" stroke-width="2" stroke-miterlimit="10" d="M164.5,75c0-8.1-3.3-15.4-8.5-20.7"/>
		<g>
			<path fill="#FE3EFF" d="M151.7,50.1c2.8,1.3,6.5,2.5,9.4,2.7l-4.6,2.1l-2.1,4.6C154.2,56.6,153,52.8,151.7,50.1z"/>
		</g>
	</g>
</g>
<g>
	<g>
		<line fill="none" stroke="#FE3EFF" stroke-width="2" stroke-miterlimit="10" x1="89.5" y1="105.2" x2="75.3" y2="133.8"/>
		<g>
			<path fill="#FE3EFF" d="M92.2,99.8c-2.2,2.1-5.4,4.4-8.1,5.5l5,0.6l3.5,3.7C91.9,106.8,91.9,102.8,92.2,99.8z"/>
		</g>
	</g>
</g>
<line fill="none" stroke="#FE3EFF" stroke-width="2" stroke-miterlimit="10" x1="104.3" y1="75.5" x2="89.5" y2="105.2"/>
<g>
	<circle fill="#00018D" cx="15.3" cy="105" r="8.2"/>
</g>
<text transform="matrix(1 0 0 1 12.2723 108.5995)" fill="#FFFFFF" font-family="'PTSans-Caption'" font-size="12">c</text>
<g>
	<circle fill="#00018D" cx="45.3" cy="75.8" r="8.2"/>
</g>
<text transform="matrix(1 0 0 1 41.9004 79.4141)" fill="#FFFFFF" font-family="'PTSans-Caption'" font-size="12">b</text>
<g>
	<circle fill="#00018D" cx="104.3" cy="75.8" r="8.2"/>
</g>
<text transform="matrix(1 0 0 1 101.7189 79.4141)" fill="#FFFFFF" font-family="'PTSans-Caption'" font-size="12">f</text>
<g>
	<circle fill="#00018D" cx="135.3" cy="45.8" r="8.2"/>
</g>
<text transform="matrix(1 0 0 1 131.9934 49.4141)" fill="#FFFFFF" font-family="'PTSans-Caption'" font-size="12">e</text>
<g>
	<circle fill="#00018D" cx="164.3" cy="75.8" r="8.2"/>
</g>
<text transform="matrix(1 0 0 1 160.9065 79.4141)" fill="#FFFFFF" font-family="'PTSans-Caption'" font-size="12">g</text>
<g>
	<circle fill="#00018D" cx="75.3" cy="133.8" r="8.2"/>
</g>
<text transform="matrix(1 0 0 1 71.546 137.4141)" fill="#FFFFFF" font-family="'PTSans-Caption'" font-size="12">h</text>
</svg>
