<?xml version="1.0" encoding="utf-8"?>
<!-- Generator: Adobe Illustrator 18.0.0, SVG Export Plug-In . SVG Version: 6.00 Build 0)  -->
<!DOCTYPE svg PUBLIC "-//W3C//DTD SVG 1.1//EN" "http://www.w3.org/Graphics/SVG/1.1/DTD/svg11.dtd">
<svg version="1.1" id="图层_1" xmlns="http://www.w3.org/2000/svg" xmlns:xlink="http://www.w3.org/1999/xlink" x="0px" y="0px"
	 viewBox="0 0 180 150" enable-background="new 0 0 180 150" xml:space="preserve">
<g>
	<line fill="none" stroke="#B3B3B3" stroke-miterlimit="10" x1="180" y1="133.5" x2="0" y2="133.5"/>
	<line fill="none" stroke="#B3B3B3" stroke-miterlimit="10" x1="180" y1="105.5" x2="0" y2="105.5"/>
	<line fill="none" stroke="#B3B3B3" stroke-miterlimit="10" x1="180" y1="75.5" x2="0" y2="75.5"/>
	<line fill="none" stroke="#B3B3B3" stroke-miterlimit="10" x1="180" y1="45.5" x2="0" y2="45.5"/>
	<line fill="none" stroke="#B3B3B3" stroke-miterlimit="10" x1="180" y1="17.5" x2="0" y2="17.5"/>
	<line fill="none" stroke="#B3B3B3" stroke-miterlimit="10" x1="15.5" y1="0" x2="15.5" y2="150"/>
	<line fill="none" stroke="#B3B3B3" stroke-miterlimit="10" x1="45.5" y1="0" x2="45.5" y2="150"/>
	<line fill="none" stroke="#B3B3B3" stroke-miterlimit="10" x1="75.5" y1="0" x2="75.5" y2="150"/>
	<line fill="none" stroke="#B3B3B3" stroke-miterlimit="10" x1="104.5" y1="0" x2="104.5" y2="150"/>
	<line fill="none" stroke="#B3B3B3" stroke-miterlimit="10" x1="135.5" y1="0" x2="135.5" y2="150"/>
	<line fill="none" stroke="#B3B3B3" stroke-miterlimit="10" x1="164.5" y1="0" x2="164.5" y2="150"/>
</g>
<g>
	<circle fill="#00018D" cx="45.3" cy="17.8" r="8.2"/>
</g>
<text transform="matrix(1 0 0 1 42.2889 21.4548)" fill="#FFFFFF" font-family="'PTSans-Caption'" font-size="12">a</text>
<line fill="none" stroke="#027C00" stroke-width="2" stroke-miterlimit="10" x1="53" y1="18" x2="96" y2="18"/>
<line fill="none" stroke="#027C00" stroke-width="2" stroke-miterlimit="10" x1="45" y1="26" x2="45" y2="68"/>
<line fill="none" stroke="#027C00" stroke-width="2" stroke-miterlimit="10" x1="45.3" y1="75.8" x2="15.3" y2="105"/>
<line fill="none" stroke="#027C00" stroke-width="2" stroke-miterlimit="10" x1="45.3" y1="75.8" x2="75.3" y2="133.8"/>
<line fill="none" stroke="#027C00" stroke-width="2" stroke-miterlimit="10" x1="135.3" y1="45.8" x2="104.3" y2="75.5"/>
<line fill="none" stroke="#027C00" stroke-width="2" stroke-miterlimit="10" x1="135.3" y1="45.8" x2="164.5" y2="75"/>
<line fill="none" stroke="#027C00" stroke-width="2" stroke-miterlimit="10" x1="104.5" y1="17.8" x2="135.3" y2="45.8"/>
<g>
	<circle fill="#00018D" cx="104.3" cy="17.8" r="8.2"/>
</g>
<text transform="matrix(1 0 0 1 100.9004 21.4141)" fill="#FFFFFF" font-family="'PTSans-Caption'" font-size="12">d</text>
<path fill="none" stroke="#FE3EFF" stroke-width="2" stroke-miterlimit="10" d="M15.3,105c0-16.2,13.4-29.2,30-29.2"/>
<path fill="none" stroke="#FE3EFF" stroke-width="2" stroke-miterlimit="10" d="M164.5,75c0-16.2-13.1-29.2-29.2-29.2"/>
<line fill="none" stroke="#FE3EFF" stroke-width="2" stroke-miterlimit="10" x1="104.3" y1="75.5" x2="75.3" y2="133.8"/>
<g>
	<circle fill="#00018D" cx="15.3" cy="105" r="8.2"/>
</g>
<text transform="matrix(1 0 0 1 12.2723 108.5995)" fill="#FFFFFF" font-family="'PTSans-Caption'" font-size="12">c</text>
<g>
	<circle fill="#00018D" cx="45.3" cy="75.8" r="8.2"/>
</g>
<text transform="matrix(1 0 0 1 41.9004 79.4141)" fill="#FFFFFF" font-family="'PTSans-Caption'" font-size="12">b</text>
<g>
	<circle fill="#00018D" cx="104.3" cy="75.8" r="8.2"/>
</g>
<text transform="matrix(1 0 0 1 101.7189 79.4141)" fill="#FFFFFF" font-family="'PTSans-Caption'" font-size="12">f</text>
<g>
	<circle fill="#00018D" cx="135.3" cy="45.8" r="8.2"/>
</g>
<text transform="matrix(1 0 0 1 131.9934 49.4141)" fill="#FFFFFF" font-family="'PTSans-Caption'" font-size="12">e</text>
<g>
	<circle fill="#00018D" cx="164.3" cy="75.8" r="8.2"/>
</g>
<text transform="matrix(1 0 0 1 160.9065 79.4141)" fill="#FFFFFF" font-family="'PTSans-Caption'" font-size="12">g</text>
<g>
	<circle fill="#00018D" cx="75.3" cy="133.8" r="8.2"/>
</g>
<text transform="matrix(1 0 0 1 71.546 137.4141)" fill="#FFFFFF" font-family="'PTSans-Caption'" font-size="12">h</text>
</svg>
